<?xml version="1.0" standalone="no"?><!-- Generator: Gravit.io --><svg xmlns="http://www.w3.org/2000/svg" xmlns:xlink="http://www.w3.org/1999/xlink" style="isolation:isolate" viewBox="0 0 512 512" width="512" height="512"><defs><clipPath id="_clipPath_AD5DrfppFleXcsSAQDGlf8BYYRyluaLO"><rect width="512" height="512"/></clipPath></defs><g clip-path="url(#_clipPath_AD5DrfppFleXcsSAQDGlf8BYYRyluaLO)"><rect width="512" height="512" style="fill:rgb(0,0,0)" fill-opacity="0"/><g><g><rect x="5" y="3.784" width="101" height="505" transform="matrix(1,0,0,1,0,0)" fill="rgb(255,255,255)"/><rect x="207" y="3.784" width="101" height="505" transform="matrix(1,0,0,1,0,0)" fill="rgb(255,255,255)"/><rect x="106" y="104.784" width="101" height="303" transform="matrix(0,1,-1,0,412.784,99.784)" fill="rgb(255,255,255)"/></g><g filter="url(#4ixybR2HWkfueAOc9xQSA8BoZoaBqb17)"><path d=" M 207 508.784 L 308 3.784 L 409 3.784 L 387.352 112.024 L 308 508.784 L 207 508.784 Z " fill="rgb(99,0,71)"/><path d=" M 308 3.784 L 409 508.784 L 510 508.784 L 409 3.784 L 308 3.784 Z " fill="rgb(99,0,71)"/><rect x="308" y="374.117" width="101" height="101" transform="matrix(1,0,0,1,0,0)" fill="rgb(99,0,71)"/></g><defs><filter id="4ixybR2HWkfueAOc9xQSA8BoZoaBqb17" x="-200%" y="-200%" width="400%" height="400%" filterUnits="objectBoundingBox" color-interpolation-filters="sRGB"><feGaussianBlur xmlns="http://www.w3.org/2000/svg" in="SourceGraphic" stdDeviation="4.293609062839028"/><feOffset xmlns="http://www.w3.org/2000/svg" dx="-2" dy="0" result="pf_100_offsetBlur"/><feFlood xmlns="http://www.w3.org/2000/svg" flood-color="#000000" flood-opacity="0.3"/><feComposite xmlns="http://www.w3.org/2000/svg" in2="pf_100_offsetBlur" operator="in" result="pf_100_dropShadow"/><feBlend xmlns="http://www.w3.org/2000/svg" in="SourceGraphic" in2="pf_100_dropShadow" mode="normal"/></filter></defs></g></g></svg>